<?xml version="1.0" encoding="UTF-8"?>
<svg width="32px" height="32px" viewBox="0 0 32 32" version="1.1" xmlns="http://www.w3.org/2000/svg" xmlns:xlink="http://www.w3.org/1999/xlink">
    <!-- Generator: Sketch 46.2 (44496) - http://www.bohemiancoding.com/sketch -->
    <title>logo</title>
    <desc>Created with Sketch.</desc>
    <defs></defs>
    <g id="Ãtomos" stroke="none" stroke-width="1" fill="none" fill-rule="evenodd">
        <g id="Iconos" transform="translate(-74.000000, -3971.000000)" fill="#666666">
            <g id="ico-logo" transform="translate(74.000000, 3971.000000)">
                <path d="M13.6394937,16.0640967 C13.6111392,16.2043525 13.5898734,16.3446084 13.561519,16.4778515 L13.5048101,16.7723888 C13.3134177,17.7822311 13.0582278,18.6875828 12.7108861,19.4723144 C12.3848101,20.2654613 12.0091139,20.9520138 11.5979747,21.5340757 C11.1868354,22.1161375 10.761519,22.5930075 10.3362025,22.9716984 C9.91088608,23.3503892 9.49974684,23.6379138 9.10987342,23.8202464 C8.73417722,24.0095918 8.40101266,24.1007581 8.12455696,24.1007581 L8.08911392,24.1007581 C7.70632911,24.1007581 7.40151899,23.9254383 7.14632911,23.5537602 C6.89822785,23.1750694 6.77063291,22.5649563 6.7564557,21.7234211 C6.7564557,21.148372 6.82025316,20.5592974 6.94075949,19.948483 C7.07544304,19.3320585 7.25974684,18.735971 7.52202532,18.1546104 C7.77721519,17.5788601 8.09620253,17.046589 8.49316456,16.5760306 C8.89012658,16.1061734 9.35797468,15.7344954 9.89670886,15.4539836 C10.4283544,15.1874975 11.0450633,15.0402288 11.7255696,15.033216 C12.1792405,15.033216 12.5762025,15.0963311 12.9093671,15.2155486 C13.2425316,15.3347661 13.5048101,15.4960604 13.7174684,15.6994314 L13.6394937,16.0640967 L13.6394937,16.0640967 Z M19.7782278,4.83661409 C19.8136709,5.0540107 19.7924051,5.40465038 19.700962,5.87450755 L19.3387342,8.13963988 L17.9699241,16.4007108 C17.8288608,17.2983483 17.6870886,18.1328708 17.5594937,18.9042781 C17.4382785,19.6826982 17.3255696,20.3552251 17.2405063,20.9309754 C17.1483544,21.5130373 17.0838481,21.9478305 17.0427342,22.2563934 C16.9498734,22.9289203 16.8789873,23.5895255 16.8364557,24.2269884 C16.7939241,24.8574386 16.758481,25.4261761 16.7443038,25.9170717 C16.7294177,26.4079672 16.7223291,27.3343573 16.7223291,27.5931294 C16.4536709,27.6218818 16.2693671,27.6071549 15.7518987,27.6141677 C15.2486076,27.6141677 15.0359494,27.6071549 14.5113924,27.6141677 C14.0435443,27.6218818 13.7812658,27.6141677 13.3701266,27.6288946 C13.0086076,27.6352061 12.7888608,27.6422189 12.6329114,27.6422189 C12.5762025,27.6352061 12.5194937,27.5510526 12.476962,27.3967711 C12.4344304,27.2354769 12.3989873,27.017379 12.3777215,26.7656197 C12.3493671,26.5138604 12.3351899,26.2326474 12.3351899,25.9381101 C12.3351899,25.6372612 12.3351899,25.3427239 12.3493671,25.0685237 C12.3635443,24.9135409 12.3848101,24.7459352 12.3989873,24.5706153 L12.441519,24.072707 C12.4556962,23.9254383 12.4556962,23.834272 12.4556962,23.7921952 C11.9311392,24.6414445 11.3002532,25.3497367 10.5701266,25.9170717 C9.85417722,26.4914195 9.07443038,26.9206025 8.23797468,27.2074257 C7.40860759,27.4949502 6.56506329,27.6422189 5.70734177,27.6422189 L5.67189873,27.6422189 C4.92050633,27.6352061 4.27544304,27.4318351 3.72253165,27.017379 C3.17670886,26.6043255 2.75139241,26.0012252 2.45367089,25.2228051 C2.15594937,24.444385 2.00708861,23.4976579 2,22.3896365 C2,21.3236919 2.14177215,20.2991227 2.41113924,19.2899817 C2.68759494,18.2871522 3.09873418,17.3544507 3.62329114,16.4848643 C4.15493671,15.6152779 4.8,14.8508834 5.57265823,14.1916808 C6.34531646,13.539491 7.2243038,13.0205442 8.20962025,12.655879 C9.20202532,12.2842009 10.2936709,12.0948555 11.4774684,12.0878427 C12.0091139,12.0878427 12.4982278,12.143945 12.9448101,12.2280986 C13.398481,12.3262777 13.7812658,12.452508 14.1002532,12.6278278 C14.1711392,12.3052393 14.2562025,11.8774589 14.355443,11.3655249 C14.4546835,10.8395654 14.5468354,10.2715291 14.6531646,9.6544033 C14.7453165,9.03727747 14.844557,8.42716442 14.9296203,7.81705138 C15.0146835,7.20693833 15.0926582,6.64591484 15.1422785,6.15501929 C15.1918987,5.65009815 15.2202532,5.25738171 15.2202532,4.96985717 C15.4825316,4.92076762 15.801519,4.87869085 16.163038,4.82258851 L17.3326582,4.66830705 C17.7437975,4.62623028 18.1265823,4.58415352 18.4951899,4.54908956 C18.856,4.51402559 19.1693165,4.5 19.4167089,4.5 C19.6215696,4.5 19.7420759,4.6122047 19.7782278,4.83661409 Z M30,21.8005618 C30,22.2563934 28.6822278,22.8174169 26.2288608,22.8244297 L26.2012152,22.8244297 C23.7478481,22.8174169 22.4293671,22.2563934 22.4293671,21.8005618 C22.4293671,21.5200501 22.6569114,21.1904488 22.918481,20.8678603 C23.5139241,21.1553848 24.6197468,21.386807 26.2012152,21.3938198 L26.2288608,21.3938198 C27.8096203,21.386807 28.9161519,21.1553848 29.5108861,20.8678603 C29.7731646,21.1904488 30,21.5200501 30,21.8005618 Z M23.1382278,20.6090882 L23.1453165,20.5943613 C23.315443,18.2738279 25.3718481,17.9996277 25.5767089,17.9996277 C25.5767089,17.7752183 25.9807595,17.8172951 26.1147342,17.8172951 C26.1147342,17.5998985 25.9949367,17.5227577 25.9949367,17.5227577 L25.7326582,17.3684763 L25.7822785,17.1300413 L26.64,17.1300413 L26.6967089,17.3684763 L26.4351392,17.5227577 C26.4351392,17.5227577 26.3139241,17.5998985 26.3139241,17.8172951 C26.4486076,17.8172951 26.8526582,17.7752183 26.8526582,17.9996277 C27.0582278,17.9996277 29.2840506,18.3222162 29.2840506,20.6013741 L29.2840506,20.6090882 C28.6595443,20.8475232 27.6253165,21.0291545 26.2288608,21.0291545 L26.2012152,21.0291545 C24.8040506,21.0291545 23.7691139,20.8475232 23.1382278,20.6090882 Z M21.7843038,12.5787382 L22.2025316,12.1860218 L23.4501266,12.3052393 L25.4207595,10.0120558 L21.8275443,8.39911325 L22.6278481,7.87315373 L26.7746835,8.74274013 C26.7746835,8.74274013 29.0572152,6.74409396 29.6250127,7.28407906 C30.1913924,7.81705138 28.0364557,9.94894063 28.0364557,9.94894063 L28.7524051,13.7148108 L28.2278481,14.4301158 L26.6825316,11.2252691 L24.201519,13.0415826 L24.3007595,14.2337575 L23.8683544,14.6334868 L23.1807595,13.2800176 L21.7843038,12.5787382 Z M20.4098228,18.939342 L20.4232911,18.939342 C20.6146835,18.939342 20.7777215,18.9884316 20.9053165,19.0718838 C21.0392911,19.1567386 21.1392405,19.2759561 21.2101266,19.4225235 C21.2739241,19.564182 21.3093671,19.7247749 21.3093671,19.9078088 C21.3093671,20.1238029 21.2597468,20.3215637 21.1675949,20.4891694 C21.075443,20.6497624 20.9478481,20.784408 20.7848101,20.8811846 C20.6217722,20.9730522 20.4374684,21.022843 20.2248101,21.0291545 C20.0327089,21.022843 19.8703797,20.9870778 19.7286076,20.909937 C19.5868354,20.8327963 19.4805063,20.7283057 19.395443,20.5943613 C19.3174684,20.4541055 19.2820253,20.2928112 19.2820253,20.096453 C19.2820253,19.858018 19.324557,19.6539457 19.4167089,19.4863399 C19.5088608,19.3110201 19.6364557,19.177777 19.8065823,19.0866107 C19.9696203,18.9884316 20.1758987,18.939342 20.4098228,18.939342 Z M20.2886076,18.0066405 C20.1964557,18.0066405 20.0965063,18.0199648 20.0050633,18.0276789 C20.4020253,16.5409666 20.841519,15.6222907 21.7772152,14.4932309 L23.0956962,14.5282949 C22.1387342,15.678393 21.798481,16.6321329 21.2526582,18.2240371 C20.9620253,18.090794 20.6359494,18.0066405 20.2886076,18.0066405 Z M20.3304304,22.102112 C20.5225316,22.102112 20.7139241,22.0810736 20.8847595,22.031984 C20.9825823,23.4773208 21.2881013,24.4303594 21.961519,25.6786367 L20.6005063,25.6786367 C19.9192911,24.4100223 19.6151899,23.4485683 19.5237468,21.9555446 C19.7711392,22.0460096 20.0475949,22.102112 20.3304304,22.102112 Z" id="logo"></path>
            </g>
        </g>
    </g>
</svg>